<svg id="visual" viewBox="0 0 900 900" width="900" height="900" xmlns="http://www.w3.org/2000/svg" xmlns:xlink="http://www.w3.org/1999/xlink" version="1.1"><rect x="0" y="0" width="900" height="900" fill="#fff"></rect><path d="M0 489L30 458.8C60 428.7 120 368.3 180 350.3C240 332.3 300 356.7 360 390C420 423.3 480 465.7 540 438.5C600 411.3 660 314.7 720 267.2C780 219.7 840 221.3 870 222.2L900 223L900 901L870 901C840 901 780 901 720 901C660 901 600 901 540 901C480 901 420 901 360 901C300 901 240 901 180 901C120 901 60 901 30 901L0 901Z" fill="#fffbe6"></path><path d="M0 642L30 635C60 628 120 614 180 576.5C240 539 300 478 360 469.7C420 461.3 480 505.7 540 529.8C600 554 660 558 720 539.8C780 521.7 840 481.3 870 461.2L900 441L900 901L870 901C840 901 780 901 720 901C660 901 600 901 540 901C480 901 420 901 360 901C300 901 240 901 180 901C120 901 60 901 30 901L0 901Z" fill="#feec9c"></path><path d="M0 586L30 603C60 620 120 654 180 686.7C240 719.3 300 750.7 360 746.8C420 743 480 704 540 699.7C600 695.3 660 725.7 720 709.8C780 694 840 632 870 601L900 570L900 901L870 901C840 901 780 901 720 901C660 901 600 901 540 901C480 901 420 901 360 901C300 901 240 901 180 901C120 901 60 901 30 901L0 901Z" fill="#ffda4b"></path></svg>