<svg id="visual" viewBox="0 0 960 300" width="960" height="300" xmlns="http://www.w3.org/2000/svg" xmlns:xlink="http://www.w3.org/1999/xlink" version="1.1"><rect x="0" y="0" width="960" height="300" fill="#fff"></rect><path d="M0 165L32 171.2C64 177.3 128 189.7 192 177.7C256 165.7 320 129.3 384 128.2C448 127 512 161 576 166.7C640 172.3 704 149.7 768 149.8C832 150 896 173 928 184.5L960 196L960 301L928 301C896 301 832 301 768 301C704 301 640 301 576 301C512 301 448 301 384 301C320 301 256 301 192 301C128 301 64 301 32 301L0 301Z" fill="#fffbe6"></path><path d="M0 172L32 178.7C64 185.3 128 198.7 192 198C256 197.3 320 182.7 384 172C448 161.3 512 154.7 576 164.5C640 174.3 704 200.7 768 204.7C832 208.7 896 190.3 928 181.2L960 172L960 301L928 301C896 301 832 301 768 301C704 301 640 301 576 301C512 301 448 301 384 301C320 301 256 301 192 301C128 301 64 301 32 301L0 301Z" fill="#feec9c"></path><path d="M0 216L32 223.3C64 230.7 128 245.3 192 248.3C256 251.3 320 242.7 384 232.5C448 222.3 512 210.7 576 208C640 205.3 704 211.7 768 221.7C832 231.7 896 245.3 928 252.2L960 259L960 301L928 301C896 301 832 301 768 301C704 301 640 301 576 301C512 301 448 301 384 301C320 301 256 301 192 301C128 301 64 301 32 301L0 301Z" fill="#ffda4b"></path></svg>